<?xml version="1.0" encoding="utf-8" ?><svg xmlns="http://www.w3.org/2000/svg" xmlns:xlink="http://www.w3.org/1999/xlink" width="1024" height="1024" viewBox="0 0 1024 1024"><path fill="#FBFBFA" d="M0 0L1024 0L1024 1024L0 1024L0 0Z"/><path fill="#10100F" d="M507.127 175.047C594.622 172.294 667.796 240.963 670.599 328.456C673.403 415.949 604.775 489.162 517.284 492.015C429.722 494.871 356.437 426.176 353.631 338.613C350.825 251.049 419.562 177.803 507.127 175.047Z"/><path fill="#FBFBFA" d="M501.971 183.01C585.064 177.421 656.962 240.234 662.579 323.325C668.196 406.416 605.406 478.335 522.316 483.979C439.189 489.626 367.23 426.8 361.61 343.671C355.99 260.541 418.84 188.603 501.971 183.01Z"/><path fill="#10100F" d="M438.575 262.203C454.576 260.219 471.684 265.281 486.488 270.557C487.937 269.097 489.484 267.308 491.226 266.209C501.015 260.033 555.536 262.195 567.848 265.159C579.978 268.079 606.418 284.464 612.942 295.392C618.346 304.442 618.991 316.433 616.304 326.471C613.487 336.998 607.044 342.332 598.047 347.572C610.169 355.074 619.373 364.025 619.871 378.798C620.265 390.513 619.525 391.383 627.271 400.626C629.09 403.778 628.244 410.496 627.071 413.397C619.704 431.611 588.723 427.365 574.873 422.237C570.94 420.547 569.158 419.65 565.489 417.452C554.8 427.853 535.45 425.92 521.688 425.008C512.059 424.371 507.519 419.011 502.241 411.947C481.491 433.731 437.457 427.467 416.283 409.451C413.221 406.847 410.289 403.074 407.231 400.446C397.168 391.798 388.573 381.445 388.348 367.512C388.067 358.132 390.839 346.121 400.092 342.113C401.463 341.235 406.164 339.061 406.98 337.891C408.291 336.015 402.558 329.265 401.408 328.065C389.96 316.125 388.261 293.264 399.123 280.404C408.963 268.752 423.796 263.575 438.575 262.203Z"/><path fill="#C4F016" d="M509.663 267.213C533.791 266.107 585.714 261.656 590.613 293.085C594.032 315.024 579.782 328.207 558.731 328.846C557.478 328.884 556.505 329.802 555.831 330.752C554.543 337.866 568.95 342.912 574.013 345.073C582.825 348.071 593.116 355.828 593.659 366.12C594.274 377.769 598.487 381.594 602.443 391.804C601.69 393.771 600.952 395.798 599.361 397.411C589.702 407.204 564.777 406.65 554.84 397.981C550.367 394.079 551.065 382.879 551.139 376.841C551.178 376.394 551.212 375.946 551.243 375.497C552.249 361.066 552.951 342.29 542.759 330.814C541.603 328.384 534.997 328.325 533.839 330.835C530.51 339.699 535.055 354.319 537.91 363.582C541.8 376.204 554.265 399.535 531.463 402.627C522.29 403.871 503.631 403.752 495.83 398.652C489.253 394.352 498.96 383.184 500.733 378.607C505.174 361.947 505.2 343.568 505.056 326.472C504.409 316.77 506.012 301.251 503.037 292.21C498.043 277.035 480.504 268.914 509.663 267.213Z"/><path fill="#10100F" d="M539.972 283.561C541.516 283.469 543.898 283.331 545.397 283.496C549.194 283.937 552.635 285.94 554.895 289.023C561.12 297.497 558.012 310.451 549.204 316.142C533.354 320.892 529.27 302.513 533.161 290.969C534.5 286.994 536.229 285.295 539.972 283.561Z"/><path fill="#C4F016" d="M438.425 266.206C450.888 264.832 476.819 268.948 486.495 277.537C490.121 280.771 492.281 285.336 492.483 290.19C493.273 309.132 471.517 320.98 455.478 312.528C445.588 307.316 449.104 280.393 431.002 282.132C422.201 282.977 420.889 289.088 421.606 296.928C424.663 313.981 443.486 317.906 456.916 323.139C473.268 329.511 493.594 333.343 495.475 354.302C498.257 385.296 476.81 399.93 448.62 402.922C433.38 403.73 417.352 401.896 405.193 391.772C398.221 385.948 393.892 377.559 393.185 368.501C392.644 362.168 393.446 354.796 397.937 349.731C405.111 341.639 423.846 339.065 432.121 346.582C437.898 351.807 436.89 361.046 436.457 368.237C435.278 387.765 464.723 386.731 461.561 368.234C457.282 343.204 425.478 341.595 408.599 328.508C401.802 323.322 397.433 315.572 396.514 307.073C393.524 281.068 415.482 268.337 438.425 266.206Z"/><path fill="#10100F" d="M497.448 198.067L497.673 198.028L497.569 198.714L498.272 199.28C498.714 198.255 498.712 198.273 499.421 197.408L500.582 197.593C501.605 200.705 502.165 207.515 502.254 210.912L501.616 211.411C500.292 210.86 500.289 210.831 498.879 210.647L496.843 212.451C494.459 212.543 492.345 212.88 490.421 211.192C487.447 208.583 485.129 203.568 488.476 200.269C491.393 197.394 493.94 198.289 497.448 198.067Z"/><path fill="#FBFBFA" d="M492.212 199.993C500.22 199.934 500.632 204.919 496.613 210.694C489.614 210.068 486.616 205.2 492.212 199.993Z"/><path fill="#10100F" d="M535.908 199.527C540.613 199.1 540.554 199.55 544.307 202.376L545.933 200.773L546.594 200.918C547.757 203.359 544.531 212.506 543.459 215.358C542.168 214.55 542.457 214.628 541.63 213.157L539.52 213.37C529.598 214.45 528.783 203.887 535.908 199.527Z"/><path fill="#FBFBFA" d="M536.433 201.522C544.456 201.222 545.802 206.428 540.76 211.522C532.888 211.974 531.395 206.577 536.433 201.522Z"/><path fill="#FBFBFA" d="M575.824 219.172C573.521 221.523 572.966 224.262 571.347 225.63C569.959 225.132 570.505 225.552 569.679 224.291C570.655 221.995 577.169 211.903 578.857 210.06L580.534 210.235C583.344 212.279 586.624 214.232 587.213 217.854C588.071 223.13 582.918 222.857 579.687 222.425C579.689 225.369 579.847 228.24 579.061 231.077C577.486 229.976 577.532 222.449 575.824 219.172Z"/><path fill="#10100F" d="M580.534 210.235C583.344 212.279 586.624 214.232 587.213 217.854C588.071 223.13 582.918 222.857 579.687 222.425C579.689 225.369 579.847 228.24 579.061 231.077C577.486 229.976 577.532 222.449 575.824 219.172L576.399 218.49C579.282 220.012 581.429 221.309 584.337 219.065C585.723 215.132 582.667 214.066 579.76 212.416C579.75 211.659 580.173 211.047 580.534 210.235Z"/><path fill="#10100F" d="M575.824 219.172C573.521 221.523 572.966 224.262 571.347 225.63C569.959 225.132 570.505 225.552 569.679 224.291C570.655 221.995 577.169 211.903 578.857 210.06L580.534 210.235C580.173 211.047 579.75 211.659 579.76 212.416C578.771 214.078 577.038 216.781 576.399 218.49L575.824 219.172Z"/><path fill="#10100F" d="M469.858 198.464C471.827 198.87 473.775 199.384 474.784 201.269C471.475 203.489 468.049 197.745 465.179 203.597C466.612 208.35 477.591 205.906 478.252 212.384C477.057 215.028 474.458 216.573 471.906 217.711C468.706 217.41 468.51 217.311 465.922 215.522L465.93 214.832C467.33 214.506 471.282 214.839 472.916 214.921C474.689 213.813 474.761 214.14 475.626 212.557C473.376 207.904 461.988 209.596 462.508 203.46C464.057 201.054 467.278 199.493 469.858 198.464Z"/><path fill="#10100F" d="M599.32 227.336C599.882 227.839 599.953 228.097 600.374 228.756C599.6 232.585 592.469 236.39 594.111 241.071C601.075 246.7 603.823 235.212 608.132 235.686L607.379 235.454L608.261 236.136C608.124 237.771 608.115 237.303 606.829 238.83C605.186 240.531 599.895 246.555 597.986 247.034L597.391 246.471L597.576 244.43C585.865 239.536 593.812 233.325 599.32 227.336Z"/><path fill="#10100F" d="M638.857 299.629C640.205 299.401 640.317 299.223 641.525 299.742C641.687 300.318 641.901 301.084 642.237 301.577C647.748 309.669 637.704 315.124 630.7 312.993L630.482 312.272C631.633 311.136 632.423 311.195 634.047 310.924L634.671 310.825C640.857 309.903 645.435 307.683 639.25 301.937C636.211 302.488 632.094 303.579 629.24 302.655L629.505 302.014C632.219 300.483 635.729 300.158 638.857 299.629Z"/><path fill="#10100F" d="M633.482 262.94C635.239 263.647 636.832 265.105 637.479 266.908L637.047 267.439L635.754 267.427C634.782 266.456 634.624 266.237 633.481 265.511C631.876 266.126 632.41 265.586 631.564 266.846C631.874 268.164 632.045 268.306 631.755 269.589L630.798 269.908L628.992 268.108C627.107 267.927 622.679 270.803 620.712 271.905C619.519 272.614 618.001 273.753 616.545 273.311L616.17 272.145L616.259 273.168L616.441 271.781C619.633 269.439 624.717 268.004 627.878 265.647L627.996 264.131C629.291 263.461 629.347 263.823 631.202 264.369L633.482 262.94Z"/><path fill="#10100F" d="M621.977 246.879C624.302 247.22 625.084 247.839 626.298 249.677C625.598 250.38 623.944 249.231 621.532 249.69C620.475 252.175 621.732 251.527 621.215 254.368C619.909 253.769 619.534 252.816 618.59 251.506C616.651 253.125 614.466 254.8 612.476 256.385C611.318 257.303 609.615 258.882 608.291 259.152L607.525 258.172C608.133 254.892 614.279 252.617 616.462 250.118C616.625 249.23 616.76 248.496 616.867 247.916L617.764 247.505C618.633 248.495 618.236 248.236 619.366 248.806L621.977 246.879Z"/><path fill="#10100F" d="M515.706 196.378L517.115 197.168C518.679 196.899 520.256 196.525 521.502 197.558L520.973 198.574C515.972 200.582 517.141 201.524 516.555 206.785C516.542 208.854 516.652 208.857 515.771 210.653L515.074 210.749C513.427 207.28 514.574 200.011 515.706 196.378Z"/><path fill="#10100F" d="M639.428 325.289C642.095 325.014 644.427 324.369 646.504 325.943L645.973 326.788C643.592 327.984 641.238 327.658 638.498 327.631C635.779 327.886 634.116 328.28 631.634 327.116L632.08 326.457C634.697 325.131 636.481 325.359 639.428 325.289Z"/><path fill="#10100F" d="M638.442 281.095C638.917 282.28 638.769 281.652 638.434 283.141C635.984 285.42 627.169 287.458 623.579 288.451L623.149 287.626L623.447 286.707C627.566 284.451 633.729 283.335 638.442 281.095Z"/><path fill="#10100F" d="M414.812 616.205C425.879 614.421 457.826 618.159 467.004 622.685C489.642 633.847 481.967 623.269 502.444 619.266C512.041 617.39 530.21 617.421 540.827 617.444C560.929 617.487 582.876 616.462 602.608 621.143C624.662 626.868 652.374 644.401 664.504 663.741C671.481 674.865 671.986 695.906 668.492 708.199C664.33 722.839 654.163 731.533 641.429 738.696C657.01 746.569 671.887 762.645 671.678 780.384C671.47 798.085 669.892 797.929 680.516 812.492C686.187 820.266 677.742 836.408 667.703 840.51C647.793 848.645 624.288 847.431 603.982 840.533C599.969 839.002 597.878 837.809 594.575 835.225C580.866 847.247 556.134 846.226 538.48 845.878C521.801 845.549 512.603 841.823 501.642 829.695C487.793 839.093 475.603 844.265 458.563 845.931C434.081 848.323 403.22 843.338 383.553 827.544C379.628 824.392 375.588 820.003 371.632 816.834C356.41 804.643 345.602 793.994 343.62 773.517C342.048 757.266 346.263 741.609 362.413 734.403C365.447 733.049 371.34 731.555 373.322 729.199C374.018 725.435 363.481 715.405 360.554 711.899C358.516 709.486 356.696 706.898 355.114 704.165C346.517 689.138 345.7 666.558 353.589 651.179C364.96 629.013 391.363 618.328 414.812 616.205Z"/><path fill="#C4F016" d="M521.459 623.241C540.75 622.755 561.378 623.005 580.715 623.916C597.321 624.698 615.757 630.315 627.06 643.189C634.287 651.42 637.252 666.057 636.058 676.674C634.031 696.065 618.718 709.422 600.087 712.729C596.986 713.279 582.053 714.825 582.977 719.47C585.133 730.318 604.102 730.82 612.296 734.037C619.541 736.882 626.075 739.712 631.263 745.63C641.575 757.633 634.81 773.016 637.976 786.619C639.118 791.528 648.482 796.784 647.583 802.905C647.19 805.586 645.738 808.12 643.502 809.566C630.635 817.157 611.414 817.411 597.073 815.895C574.154 813.472 572.853 804.504 575.423 784.954C577.218 775.179 577.942 764.622 576.93 754.745C575.894 744.626 573.047 724.545 564.271 717.817C562.56 716.505 560.541 715.897 558.4 716.31C556.467 716.683 554.932 717.803 553.932 719.494C547.143 730.967 562.224 776.109 565.528 789.792C566.859 795.305 568.012 801.904 564.752 806.949C561.86 811.424 556.81 813.584 551.745 814.531C542.349 816.288 503.888 817.31 496.964 812.186C494.481 810.347 494.726 807.375 495.054 804.592C495.875 797.644 499.465 790.882 501.389 784.145C504.377 773.684 505.659 762.948 506.778 752.158C509.112 729.661 511.808 676.122 505.61 656.058C504.85 653.597 503.988 651.073 502.602 648.885C499.715 644.326 492.896 639.353 492.272 633.928C492.051 632.005 492.667 630.301 493.95 628.872C499.338 622.871 513.94 623.526 521.459 623.241Z"/><path fill="#10100F" d="M562.859 648.044C591.164 646.126 595.227 685.183 573.949 695.071C549.865 701.828 545.611 670.999 553.027 655.209C554.905 651.211 558.758 649.189 562.859 648.044Z"/><path fill="#C4F016" d="M418.078 621.711L419.037 621.672C438.677 620.933 467.639 625.658 483.244 638.718C493.929 647.66 494.849 671.003 484.623 680.749C476.331 688.653 463.586 691.859 452.337 692.157C427.839 692.867 433.74 662.73 419.956 649.975C408.636 639.498 392.191 644.182 394.105 660.931C394.744 667.727 397.724 675.342 402.76 680.119C432.994 708.802 493.278 700.192 497.183 753.255C499.206 780.751 483.704 798.213 459.234 809.053C447.025 814.462 436.859 815.488 423.828 816.46C402.388 816.857 378.791 814.966 362.151 799.713C348.369 787.431 343.862 758.819 357.387 744.957C366.969 735.136 392.159 731.929 403.646 740.452C419.659 752.334 406.683 774.887 420.551 788.307C424.057 791.699 429.111 792.763 433.805 792.517C437.777 792.34 441.503 790.542 444.113 787.543C447.749 783.351 448.645 776.654 448.068 771.226C445.293 745.144 410.743 735.94 390.878 725.819C383.603 722.196 376.459 718.178 370.1 713.055C350.725 697.447 347.787 663.247 364.447 644.69C378.044 629.543 398.118 623.119 418.078 621.711Z"/></svg>